<svg xmlns="http://www.w3.org/2000/svg" viewBox="0 0 523.45 532.37"><defs><style>.cls-1{opacity:0.1;}.cls-2{fill:#f0907b;}.cls-3{fill:#5bc3b8;}</style></defs><title>banner</title><g id="Слой_2" data-name="Слой 2"><g id="Слой_1-2" data-name="Слой 1"><g class="cls-1"><path class="cls-2" d="M392.74,222.8a28.5,28.5,0,0,0,10.18,14.79,30,30,0,0,0,17.6,6.1h.26a28.07,28.07,0,0,0,8.2-1.16l.4-.13a28.5,28.5,0,0,0-.92-55,4.82,4.82,0,0,0-1.33-.26c-.13,0-.39-.13-.53-.13a38.12,38.12,0,0,0-5.55-.65h-.27a29.3,29.3,0,0,0-27.91,20.37v.13a35.79,35.79,0,0,0-.93,6.1,31.7,31.7,0,0,0,.8,9.61Zm28-22.33h.13a7.63,7.63,0,0,1,1.72.13,15.09,15.09,0,0,1,7.15,2.86,14.2,14.2,0,0,1,5.82,11.68,14.49,14.49,0,0,1-5.42,11.16,14.86,14.86,0,0,1-6.49,3c-.26,0-.39.13-.66.13a13.56,13.56,0,0,1-2.51.26,14.42,14.42,0,0,1-10.45-4.42A13.87,13.87,0,0,1,405.83,215,15,15,0,0,1,420.78,200.47Z"/><path class="cls-3" d="M463,262.12a38.65,38.65,0,0,1,.8-5.58l-118.8-1-20.11-20.11-13.1-13.11,78.45.65a34.75,34.75,0,0,1-.79-10,38.55,38.55,0,0,1,.92-6.36l-87.84-.77-7.15-.13L282.66,193l-10.05-9.35,78.19.13V93.53A20.76,20.76,0,0,0,329.89,73H212.28a20.75,20.75,0,0,0-20.9,20.51v92.54l-14.95-.13H96.79a20.75,20.75,0,0,0-20.91,20.5V322.22a20.75,20.75,0,0,0,20.91,20.5h94.72v92.41a20.75,20.75,0,0,0,20.9,20.51H330a20.63,20.63,0,0,0,16.4-7.92,20,20,0,0,0,4.37-12.59V342.59c-.4-.13-.66-.65-.8-1.43H272.48l21.83-20.76,96,.91a40.24,40.24,0,0,1-.92-10.52,26.91,26.91,0,0,1,.92-5.84l-79.24-.78,15.34-14.79L345,271.47,464,272.64v-.13A34.57,34.57,0,0,1,463,262.12ZM302.64,289.51,272.34,319l-57.41-55.42,57.41-57.49,2.39,2.33,26.85,26.87,28.18,28.16Z"/><path class="cls-2" d="M523.44,264.59c.14-15.83-12.83-28.81-29-29.07h-.26A29.14,29.14,0,0,0,466.29,256l-.13.65a37.31,37.31,0,0,0-.79,5.58,39.55,39.55,0,0,0,.79,9.74,1.17,1.17,0,0,1,.13.65,27.92,27.92,0,0,0,5,9.34l.4.39.13.13a27.36,27.36,0,0,0,4.5,4.28,30,30,0,0,0,17.59,6.1h.27c15.34,0,28.18-11.81,29.1-26.86v-.91l-.13-.26Zm-17.33,8.57a15.14,15.14,0,0,1-11.77,5.71,15,15,0,0,1-14.82-14.67,14.8,14.8,0,0,1,14.82-14.41h.13a14.43,14.43,0,0,1,10.45,4.42,14,14,0,0,1,4.24,10.38A14.14,14.14,0,0,1,506.11,273.16Z"/><path class="cls-2" d="M421.05,284.45h-.27A29.25,29.25,0,0,0,392.87,305l-.13.39a39.09,39.09,0,0,0-.93,5.71,39.52,39.52,0,0,0,.79,9.74l.14.26a28.21,28.21,0,0,0,4.76,9.21c.39.52.92,1,1.32,1.56a7.48,7.48,0,0,0,.93,1l.26.26a18.92,18.92,0,0,0,1.72,1.55c.4.26.66.65,1.06.91a30.09,30.09,0,0,0,17.73,6.1l.26,1.17v-1.17a29.81,29.81,0,0,0,22.36-10.12l.4-.52c.26-.39.53-.65.79-1a27.8,27.8,0,0,0,2.12-3.24,2.84,2.84,0,0,1,.39-.65l.14-.26c.26-.39.39-.91.66-1.43l.13-.52c.13-.39.27-.65.4-1a27.08,27.08,0,0,0,1.85-9.73,28.38,28.38,0,0,0-8.33-20.38A30.25,30.25,0,0,0,421.05,284.45Zm-.27,43.22a14.92,14.92,0,0,1-10.58-4.29A14,14,0,0,1,406,313a14.81,14.81,0,0,1,14.82-14.41h.13A14.46,14.46,0,0,1,431.37,303a14,14,0,0,1,4.23,10.38A14.78,14.78,0,0,1,420.78,327.67Z"/><path class="cls-3" d="M509.42,390.35s-.66,1.17-1.85,3.51c-.66,1.17-1.46,2.59-2.25,4.15s-2.12,3.64-3.44,5.71a255.42,255.42,0,0,1-25.67,35.43,268.85,268.85,0,0,1-131.63,83.33c-7.94,2.2-16.14,4-24.61,5.58s-17.2,2.59-26.06,3.37-18,1-27.12.91-18.52-.78-28.05-1.82A271.27,271.27,0,0,1,38.31,402.68,262.36,262.36,0,0,1,25.48,153.36,267,267,0,0,1,104.59,56,271.12,271.12,0,0,1,211.89,6.31,279.94,279.94,0,0,1,318,4a261.32,261.32,0,0,1,45.64,11.94,269.68,269.68,0,0,1,93.8,57.88A234.91,234.91,0,0,1,474.89,92c2.38,2.73,4.5,5.45,6.48,7.79s3.58,4.67,5.16,6.62c3.05,4,5.3,7.14,6.62,9.34S495.4,119,495.4,119l-2,1.3L491,117.15c-1.45-2.08-3.83-5.06-7-9.08A268.82,268.82,0,0,0,214,15.66,266.27,266.27,0,0,0,111.74,64.72a261.74,261.74,0,0,0-75,93.57,245.49,245.49,0,0,0-19.18,58.54A254,254,0,0,0,49,396.19,260.92,260.92,0,0,0,133.17,482a268.91,268.91,0,0,0,106.76,38.68c9,1.17,18.13,2,26.86,2.21,9,.26,17.73,0,26.33-.52s17.06-1.56,25.26-2.86,16.28-3,23.95-5.06a267.79,267.79,0,0,0,79.51-35A262,262,0,0,0,472.91,436a256.17,256.17,0,0,0,26.46-34.13c1.32-2.08,2.51-3.9,3.57-5.59s1.85-3,2.51-4.15c1.33-2.21,2-3.37,2-3.37Z"/></g></g></g></svg>