<svg xmlns="http://www.w3.org/2000/svg" viewBox="0 0 49 48.97"><defs><style>.cls-1{fill:#f79a8c;}</style></defs><title>icon_own_doctor-3</title><g id="Слой_2" data-name="Слой 2"><g id="Слой_1-2" data-name="Слой 1"><path class="cls-1" d="M44.91,32.64H26.13V28.56H24.5v4.08H13.07v-31H24.5V4.9h1.63V.82A.82.82,0,0,0,25.31,0H12.25a.82.82,0,0,0-.82.82V3.26h-9a.82.82,0,0,0-.82.82V14.69H3.27V4.9h8.16V32.64H9.8V26.93A.82.82,0,0,0,9,26.12H5.72a.82.82,0,0,0-.82.81v5.71H3.27V16.32H1.63V32.64H.82a.82.82,0,0,0-.82.82v4.08a.82.82,0,0,0,.82.82H3.27v5.71H.82a.82.82,0,0,0-.82.82v3.26A.82.82,0,0,0,.82,49H44.91a.82.82,0,0,0,.82-.82V44.89a.82.82,0,0,0-.82-.82H42.46V42.44H40.83v1.63H39.2V38.36h1.63v2.45h1.63V38.36h2.45a.82.82,0,0,0,.82-.82V33.46A.82.82,0,0,0,44.91,32.64ZM6.53,27.75H8.17v4.89H6.53ZM4.9,38.36H6.53v5.71H4.9Zm8.17,0v5.71H8.17V38.36Zm13.88,0v5.71H18V38.36Zm3.26,5.71H28.58V38.36h1.63Zm-13.88,0H14.7V38.36h1.63ZM44.1,45.7v1.63H1.63V45.7Zm-6.54-1.63H31.85V38.36h5.71Zm6.54-7.35H1.63V34.28H44.1Z"/><path class="cls-1" d="M17.15,11.43h3.27a.82.82,0,0,0,.81-.82V9.79h.82A.81.81,0,0,0,22.86,9V5.71a.81.81,0,0,0-.81-.81h-.82V4.08a.82.82,0,0,0-.81-.82H17.15a.82.82,0,0,0-.82.82V4.9h-.81a.81.81,0,0,0-.82.81V9a.81.81,0,0,0,.82.81h.81v.82A.82.82,0,0,0,17.15,11.43Zm-.82-4.9h.82A.82.82,0,0,0,18,5.71V4.9H19.6v.81a.82.82,0,0,0,.82.82h.81V8.16h-.81A.82.82,0,0,0,19.6,9v.81H18V9a.82.82,0,0,0-.82-.82h-.82Z"/><path class="cls-1" d="M14.7,13.87h1.63V18H14.7Z"/><path class="cls-1" d="M18,13.87H19.6V18H18Z"/><path class="cls-1" d="M14.7,22.85h1.63v4.08H14.7Z"/><path class="cls-1" d="M14.7,19.59h1.63v1.63H14.7Z"/><path class="cls-1" d="M18,19.59H19.6v1.63H18Z"/><path class="cls-1" d="M14.7,28.56h1.63V30.2H14.7Z"/><path class="cls-1" d="M18,28.56H19.6V30.2H18Z"/><path class="cls-1" d="M21.23,28.56h1.63V30.2H21.23Z"/><path class="cls-1" d="M5.72,14.69H9a.82.82,0,0,0,.82-.82V7.34A.82.82,0,0,0,9,6.53H5.72a.82.82,0,0,0-.82.81v6.53A.82.82,0,0,0,5.72,14.69Zm.81-6.53H8.17v4.9H6.53Z"/><path class="cls-1" d="M4.9,23.67a.82.82,0,0,0,.82.81H9a.82.82,0,0,0,.82-.81V17.14A.82.82,0,0,0,9,16.32H5.72a.82.82,0,0,0-.82.82ZM6.53,18H8.17v4.9H6.53Z"/><path class="cls-1" d="M35.93,2.45H34.3v.81h-.82V4.9h.82v.81h1.63V4.9h.82V3.26h-.82Z"/><path class="cls-1" d="M38.38,25.3h2.45v1.63H38.38Z"/><path class="cls-1" d="M21.23,17.14a13.7,13.7,0,0,0,.46,3.54l-2.81,5a.83.83,0,0,0,.32,1.11.79.79,0,0,0,.4.1h5.68A13.71,13.71,0,0,0,35.11,31,13.87,13.87,0,0,0,42.92,5.67L42,7a12.24,12.24,0,0,1,3.25,17l-.34.47v-1a2.88,2.88,0,0,0-1.85-2.68l-3.91-1.46v0L38,16.37l.66-.39A2.84,2.84,0,0,0,40,13.53V8.16a.82.82,0,0,0,.82-.82V2.86A2.86,2.86,0,0,0,38,0H32.26A2.86,2.86,0,0,0,29.4,2.86V7.34a.81.81,0,0,0,.81.82v5.37A2.87,2.87,0,0,0,31.6,16l.65.39-1.16,2.91v0l-3.91,1.46a2.9,2.9,0,0,0-1.86,2.68V25.3H21l2.29-4.12a.86.86,0,0,0,.07-.63A12.25,12.25,0,0,1,28.22,7L27.3,5.67A13.89,13.89,0,0,0,21.23,17.14Zm13.88,5.22-2.33-2.91.89-2.22a2.87,2.87,0,0,0,2.89,0l.89,2.22ZM31,2.86a1.23,1.23,0,0,1,1.23-1.23H38A1.23,1.23,0,0,1,39.2,2.86V6.53H31Zm7.35,5.3v3.69l-3-1.18a.81.81,0,0,0-.61,0l-3,1.18V8.16Zm-6.53,5.45,2.45-1v1.24h1.63V12.63l2.45,1a1.23,1.23,0,0,1-.59,1l-2,1.23a1.24,1.24,0,0,1-1.26,0l-2-1.23A1.23,1.23,0,0,1,31.85,13.61ZM27.74,22.3l4-1.51L34.3,24v3h1.63V24l2.53-3.16,4,1.51a1.24,1.24,0,0,1,.79,1.15v2.8a12.23,12.23,0,0,1-16.33,0V23.45A1.24,1.24,0,0,1,27.74,22.3Z"/></g></g></svg>