<svg xmlns="http://www.w3.org/2000/svg" viewBox="0 0 283.97 230.21"><defs><style>.cls-1{fill:#fff;}.cls-2{fill:#5bc3b8;}.cls-3{fill:#f79a8c;}</style></defs><title>icon_input-2</title><g id="Слой_2" data-name="Слой 2"><g id="Слой_1-2" data-name="Слой 1"><path class="cls-1" d="M169.1,207.49a92.28,92.28,0,1,0-92.22-92.27A92.24,92.24,0,0,0,169.1,207.49Z"/><path class="cls-2" d="M169.1,230.21a113.93,113.93,0,0,1-81.27-33.68c-1.79-1.8-3.58-3.79-5.37-5.78l-2.79-3.59H2.39v-28.5L39,121.59C49.2,110.83,56,103.46,59.15,99.47a52.8,52.8,0,0,0,6.38-9.76,19.81,19.81,0,0,0,1.79-8.37,10.12,10.12,0,0,0-3.19-8q-3.28-3-9.56-3a26.15,26.15,0,0,0-13.34,3.78A114.65,114.65,0,0,0,25.3,85.72l-1.2,1L0,58.82l1.2-1c7.76-7,14.34-12,19.51-15A73.27,73.27,0,0,1,38,35.9a85.24,85.24,0,0,1,21.11-2.39,64.39,64.39,0,0,1,26.29,5.18,1.65,1.65,0,0,1-1.39,3,62.61,62.61,0,0,0-25.1-5,89.08,89.08,0,0,0-20.31,2.19,71.3,71.3,0,0,0-16.53,6.57A116.56,116.56,0,0,0,4.38,58.82L24.3,82.13a107.53,107.53,0,0,1,15.14-11A30.29,30.29,0,0,1,54.37,67c5,0,8.77,1.19,11.55,3.78a13.52,13.52,0,0,1,4.39,10.37,22.34,22.34,0,0,1-2,9.56,53.92,53.92,0,0,1-6.78,10.57c-3.18,4-10,11.55-20.31,22.32L5.38,159.86V184H81.06l3.79,4.58c1.59,1.8,3.38,3.79,5.17,5.58a111.86,111.86,0,1,0,10.56-167.6,1.56,1.56,0,0,1-2-2.39,114.91,114.91,0,0,1,151.77,9.57c44.81,44.84,44.81,117.78,0,162.82A113.93,113.93,0,0,1,169.1,230.21ZM74.89,154.28H53.78v-3.39l2-1.8c6.37-5.77,9-8,13.74-12.35a1.55,1.55,0,0,1,2.19,2.19c-4.58,4.19-7.17,6.58-13.14,12H74.89a1.72,1.72,0,0,1,1.59,1.59A1.76,1.76,0,0,1,74.89,154.28Z"/><path class="cls-2" d="M100,32.71a7.18,7.18,0,1,0-7.17-7.18A7.17,7.17,0,0,0,100,32.71Z"/><path class="cls-2" d="M175.07,115.22,170.29,107a1.31,1.31,0,0,0-2.19,0l-4.78,8.18H77.08a92.22,92.22,0,1,0,184.43,0Z"/><path class="cls-3" d="M183.48,90.14a1,1,0,1,0-1-1A1,1,0,0,0,183.48,90.14Z"/><path class="cls-3" d="M195.56,42.21a6.67,6.67,0,0,0-1.43-2.12,6.68,6.68,0,0,0-4.7-2h-38.7a6.68,6.68,0,0,0-4.7,2,6.48,6.48,0,0,0-1.42,2.12,6.55,6.55,0,0,0-.53,2.58v38.7a6.68,6.68,0,0,0,1.95,4.7,6.73,6.73,0,0,0,2.11,1.43,6.58,6.58,0,0,0,2.59.52h28.18a1,1,0,1,0,0-2H150.73a4.58,4.58,0,0,1-3.26-1.35,4.63,4.63,0,0,1-1.36-3.27V44.79a4.64,4.64,0,0,1,4.62-4.62h38.7a4.63,4.63,0,0,1,3.27,1.36,4.58,4.58,0,0,1,1.35,3.26v38.7a4.61,4.61,0,0,1-4.62,4.62h-1.38a1,1,0,0,0,0,2h1.38a6.55,6.55,0,0,0,2.59-.52,6.76,6.76,0,0,0,3.54-3.54,6.55,6.55,0,0,0,.52-2.59V44.79A6.54,6.54,0,0,0,195.56,42.21Z"/><path class="cls-3" d="M170.08,42.81a21.33,21.33,0,1,0,21.33,21.33A21.36,21.36,0,0,0,170.08,42.81Zm0,40.63a19.3,19.3,0,1,1,19.3-19.3A19.32,19.32,0,0,1,170.08,83.44Z"/><path class="cls-3" d="M159,63.26c-1.11-.41-2.15-.86-2.45-1a.71.71,0,0,1-.26-.68,1,1,0,0,1,.78-.79,3.06,3.06,0,0,1,2.54.58,1,1,0,1,0,1.3-1.56,5.07,5.07,0,0,0-4.43-1,3,3,0,0,0-2.2,2.45A2.72,2.72,0,0,0,155.48,64l.14.08s1.28.57,2.65,1.08c.42.15,1.37.58,1.24,1.32a1.61,1.61,0,0,1-1.66,1.1,3.2,3.2,0,0,1-2.35-1A1,1,0,0,0,154,68a5.25,5.25,0,0,0,3.86,1.66,3.59,3.59,0,0,0,3.66-2.77C161.72,65.64,161.17,64.07,159,63.26Z"/><path class="cls-3" d="M183.86,63.26c-1.11-.41-2.15-.86-2.44-1a.7.7,0,0,1-.27-.68,1,1,0,0,1,.78-.79,3.06,3.06,0,0,1,2.54.58,1,1,0,0,0,1.31-1.56,5.11,5.11,0,0,0-4.44-1,3,3,0,0,0-2.2,2.45A2.74,2.74,0,0,0,180.36,64l.14.08c.05,0,1.28.57,2.66,1.08.41.15,1.36.58,1.23,1.32a1.6,1.6,0,0,1-1.65,1.1,3.2,3.2,0,0,1-2.36-1A1,1,0,0,0,178.87,68a5.29,5.29,0,0,0,3.87,1.66,3.58,3.58,0,0,0,3.65-2.77C186.6,65.64,186.05,64.07,183.86,63.26Z"/><path class="cls-3" d="M170.09,58.64a5.51,5.51,0,1,0,5.51,5.5A5.51,5.51,0,0,0,170.09,58.64Zm0,9a3.48,3.48,0,1,1,3.48-3.48A3.48,3.48,0,0,1,170.09,67.62Z"/></g></g></svg>