<svg xmlns="http://www.w3.org/2000/svg" viewBox="0 0 48.54 48.52"><defs><style>.cls-1{fill:#f79a8c;}</style></defs><title>icon_technical_support-1_1</title><g id="Слой_2" data-name="Слой 2"><g id="Слой_1-2" data-name="Слой 1"><path class="cls-1" d="M48.23,22.64l-2.44-1.71a21.53,21.53,0,0,0-43,0L.3,22.64a.67.67,0,0,0-.22.25.8.8,0,0,0-.08.33v7.6a.72.72,0,0,0,.08.32.7.7,0,0,0,.22.26l2.73,2a.76.76,0,0,0,.41.13H6.16a.72.72,0,0,0,.72-.71V21.32a17.39,17.39,0,0,1,34.77,0s0,.06,0,.08V32.77a.72.72,0,0,0,.71.71H43v.82a4.55,4.55,0,0,1-3.86,4.49,16.19,16.19,0,0,0,1.38-6.54V21.79A16.28,16.28,0,0,0,8,21.79V32.25a16.27,16.27,0,0,0,30.42,8h.06a6,6,0,0,0,6-6v-.82h.64a.7.7,0,0,0,.42-.13l2.73-2a.75.75,0,0,0,.22-.25.8.8,0,0,0,.08-.33v-7.6a.8.8,0,0,0-.08-.33A.69.69,0,0,0,48.23,22.64ZM24.27,7A14.85,14.85,0,0,1,39.11,21.79v3.84a14.73,14.73,0,0,1-14.23-7.26.65.65,0,0,0-.26-.26.73.73,0,0,0-.35-.09.74.74,0,0,0-.36.09.65.65,0,0,0-.26.26,14.79,14.79,0,0,1-12.74,7.35,14.89,14.89,0,0,1-1.49-.09V21.79A14.85,14.85,0,0,1,24.27,7Zm0,40.14A14.85,14.85,0,0,1,9.42,32.25V27.07c.5,0,1,.07,1.49.07a16.17,16.17,0,0,0,13.35-7.07,16.21,16.21,0,0,0,13.36,7.07c.5,0,1,0,1.49-.07v5.18a14.69,14.69,0,0,1-1.56,6.6h-6.7a2.33,2.33,0,0,0-2.21-1.61H25.81a2.36,2.36,0,0,0-1.65.68,2.33,2.33,0,0,0,1.65,4h2.83A2.4,2.4,0,0,0,30,41.45a2.36,2.36,0,0,0,.84-1.17h5.89a14.88,14.88,0,0,1-12.47,6.81Zm5.26-7.48a.93.93,0,0,1-.27.61,1,1,0,0,1-.62.25H25.81a.91.91,0,0,1-.64-.27.88.88,0,0,1-.26-.63.89.89,0,0,1,.9-.9h2.83a.89.89,0,0,1,.89.85v.09ZM5.45,32.05H3.67l-2.24-1.6V23.6L3.67,22H5.45ZM24.27,2.88A18.93,18.93,0,0,0,5.48,20.59H4.17a20.12,20.12,0,0,1,40.19,0H43.05A18.93,18.93,0,0,0,24.27,2.87ZM47.11,30.45l-2.25,1.61H43.09V22h1.78l2.24,1.57Z"/></g></g></svg>