<svg xmlns="http://www.w3.org/2000/svg" viewBox="0 0 280.78 229.81"><defs><style>.cls-1{fill:#fff;}.cls-2{fill:#5bc3b8;}.cls-3{fill:#f79a8c;}</style></defs><title>icon_point-3</title><g id="Слой_2" data-name="Слой 2"><g id="Слой_1-2" data-name="Слой 1"><path class="cls-1" d="M166.11,207.09a92.27,92.27,0,1,0-92.22-92.27A92.24,92.24,0,0,0,166.11,207.09Z"/><path class="cls-2" d="M166.11,229.81a113.89,113.89,0,0,1-81.26-33.68c-1.8-1.8-3.59-3.79-5.38-5.78v-.2L75.69,185c-.4.2-.8.2-1.2.4A100.18,100.18,0,0,1,46.41,189a134.42,134.42,0,0,1-22.51-1.79,128.92,128.92,0,0,1-22.31-6.38l-1-.4V143.51L3,144.71a91.84,91.84,0,0,0,19.52,7.17,78.15,78.15,0,0,0,18.32,2.4c8.37,0,14.54-1.2,18.32-3.39,3.59-2.19,5.18-5.58,5.18-10.17a12.1,12.1,0,0,0-2.79-8.37c-1.79-2-5-3.38-9.36-4.58a86,86,0,0,0-17.92-1.59H23.5V92.7h11c19.12,0,28.88-4.79,28.88-14,0-3.38-1.2-5.77-3.79-7.37C56.76,69.58,53,68.78,48.2,68.78,39,68.78,29.48,72,19.72,78.15l-1.4.79L0,49.45l1.2-.8A81.44,81.44,0,0,1,25.69,36.89a104.63,104.63,0,0,1,28.68-3.58c9.17,0,17.33,1,24.1,3.19a1.57,1.57,0,0,1-1,3,80,80,0,0,0-23.11-3,108.09,108.09,0,0,0-27.88,3.38A75.91,75.91,0,0,0,4.18,50.45L19.12,74.56c10-6,19.52-9,28.88-9,5.38,0,9.76,1,13,3,3.58,2.19,5.17,5.58,5.17,10.16,0,11.36-10.75,17.14-32.06,17.14H26.29v26.91h7.57a80.65,80.65,0,0,1,18.72,1.79c5,1.2,8.57,3,11,5.38,2.39,2.59,3.58,6,3.58,10.57,0,5.77-2.19,10.16-6.77,12.95-4.38,2.59-11,4-20.12,4a83,83,0,0,1-18.92-2.39A91.62,91.62,0,0,1,3.39,148.7v29.69a105.9,105.9,0,0,0,20.71,5.78A126.22,126.22,0,0,0,46,186a103.37,103.37,0,0,0,27.29-3.38c.79-.2,1.39-.4,2.19-.6l1-.4,5.18,7c1.59,1.8,3.39,3.79,5.18,5.58A111.85,111.85,0,1,0,97.39,26.53a1.56,1.56,0,0,1-2.19-.2,1.57,1.57,0,0,1,.2-2.19,114.91,114.91,0,0,1,151.77,9.57c44.81,44.84,44.81,117.78,0,162.82A114.71,114.71,0,0,1,166.11,229.81Z"/><path class="cls-2" d="M97.39,32.31a7.18,7.18,0,1,0-7.17-7.17A7.18,7.18,0,0,0,97.39,32.31Z"/><path class="cls-2" d="M171.88,114.82l-4.78-8.17a1.3,1.3,0,0,0-2.19,0l-4.78,8.17H73.89a92.22,92.22,0,1,0,184.43,0Z"/><path class="cls-3" d="M177,41.82h-1.63v.82h-.82v1.63h.82v.82H177v-.82h.82V42.64H177Z"/><path class="cls-3" d="M179.42,64.68h2.45v1.63h-2.45Z"/><path class="cls-3" d="M186,72H167.18V67.94h-1.64V72H154.11V41h11.43v3.26h1.64V40.19a.82.82,0,0,0-.82-.81H153.29a.81.81,0,0,0-.81.81v2.45h-9a.82.82,0,0,0-.81.82V54.07h1.63v-9.8h8.17V72h-1.64V66.31a.82.82,0,0,0-.81-.82h-3.27a.82.82,0,0,0-.82.82V72h-1.63V55.7h-1.63V72h-.82a.82.82,0,0,0-.82.82v4.08a.82.82,0,0,0,.82.81h2.45v5.72h-2.45a.82.82,0,0,0-.82.81v3.27a.82.82,0,0,0,.82.81H186a.81.81,0,0,0,.81-.81V84.26a.81.81,0,0,0-.81-.81h-2.45V81.81h-1.64v1.64h-1.63V77.73h1.63v2.45h1.64V77.73H186a.81.81,0,0,0,.81-.81V72.84A.82.82,0,0,0,186,72Zm-38.38-4.9h1.63V72h-1.63Zm-1.64,10.61h1.64v5.72h-1.64Zm8.17,0v5.72h-4.9V77.73Zm13.88,0v5.72h-9V77.73Zm3.27,5.72h-1.64V77.73h1.64Zm-13.88,0h-1.64V77.73h1.64Zm27.76,1.63v1.63H142.68V85.08Zm-6.53-1.63h-5.72V77.73h5.72Zm6.53-7.35H142.68V73.65h42.46Z"/><path class="cls-3" d="M158.19,50.8h3.27a.82.82,0,0,0,.82-.81v-.82h.81a.82.82,0,0,0,.82-.82V45.09a.82.82,0,0,0-.82-.82h-.81v-.81a.82.82,0,0,0-.82-.82h-3.27a.82.82,0,0,0-.81.82v.81h-.82a.82.82,0,0,0-.82.82v3.26a.82.82,0,0,0,.82.82h.82V50A.81.81,0,0,0,158.19,50.8Zm-.81-4.9h.81a.82.82,0,0,0,.82-.81v-.82h1.63v.82a.82.82,0,0,0,.82.81h.82v1.64h-.82a.82.82,0,0,0-.82.81v.82H159v-.82a.82.82,0,0,0-.82-.81h-.81Z"/><path class="cls-3" d="M155.74,53.25h1.64v4.08h-1.64Z"/><path class="cls-3" d="M159,53.25h1.63v4.08H159Z"/><path class="cls-3" d="M155.74,62.23h1.64v4.08h-1.64Z"/><path class="cls-3" d="M155.74,59h1.64v1.63h-1.64Z"/><path class="cls-3" d="M159,59h1.63v1.63H159Z"/><path class="cls-3" d="M155.74,67.94h1.64v1.63h-1.64Z"/><path class="cls-3" d="M159,67.94h1.63v1.63H159Z"/><path class="cls-3" d="M162.28,67.94h1.63v1.63h-1.63Z"/><path class="cls-3" d="M146.76,54.07H150a.82.82,0,0,0,.81-.82V46.72a.82.82,0,0,0-.81-.82h-3.27a.82.82,0,0,0-.82.82v6.53A.82.82,0,0,0,146.76,54.07Zm.82-6.53h1.63v4.89h-1.63Z"/><path class="cls-3" d="M145.94,63a.82.82,0,0,0,.82.82H150a.82.82,0,0,0,.81-.82V56.51a.81.81,0,0,0-.81-.81h-3.27a.82.82,0,0,0-.82.81Zm1.64-5.71h1.63v4.9h-1.63Z"/><path class="cls-3" d="M162.28,56.51a13.58,13.58,0,0,0,.45,3.54l-2.8,5a.8.8,0,0,0,.32,1.1.77.77,0,0,0,.39.11h5.68A13.88,13.88,0,1,0,184,45l-.92,1.35a12.24,12.24,0,0,1,3.24,17l-.33.46v-1a2.88,2.88,0,0,0-1.86-2.67l-3.91-1.47v0L179,55.75l.65-.39a2.89,2.89,0,0,0,1.39-2.45V47.54a.82.82,0,0,0,.81-.82V42.23A2.86,2.86,0,0,0,179,39.38H173.3a2.86,2.86,0,0,0-2.86,2.85v4.49a.82.82,0,0,0,.82.82v5.37a2.87,2.87,0,0,0,1.39,2.45l.65.39-1.17,2.91v0l-3.91,1.47a2.87,2.87,0,0,0-1.85,2.67v1.86H162l2.29-4.13a.79.79,0,0,0,.07-.62,12.27,12.27,0,0,1,4.88-13.54L168.35,45A13.88,13.88,0,0,0,162.28,56.51Zm13.88,5.23-2.33-2.92.89-2.22a2.85,2.85,0,0,0,2.88,0l.89,2.22Zm-4.09-19.51A1.23,1.23,0,0,1,173.3,41H179a1.22,1.22,0,0,1,1.22,1.22V45.9h-8.17Zm7.35,5.31v3.69l-3-1.19a.91.91,0,0,0-.61,0l-3,1.19V47.54ZM172.89,53l2.45-1v1.24H177V52l2.45,1a1.2,1.2,0,0,1-.59,1l-2,1.22a1.19,1.19,0,0,1-1.26,0l-2-1.22A1.24,1.24,0,0,1,172.89,53Zm-4.1,8.69,4-1.51,2.53,3.16v3H177v-3l2.53-3.16,4,1.51a1.22,1.22,0,0,1,.79,1.14v2.81a12.24,12.24,0,0,1-16.33,0V62.82A1.22,1.22,0,0,1,168.79,61.68Z"/></g></g></svg>