<svg xmlns="http://www.w3.org/2000/svg" viewBox="0 0 18 17.69"><defs><style>.cls-1{fill:#f79a8c;}</style></defs><title>icon_footer_contacts_phone</title><g id="Слой_2" data-name="Слой 2"><g id="Слой_1-2" data-name="Слой 1"><path class="cls-1" d="M2.84,0a.61.61,0,0,0-.38,0C1.12.56.27,2.45.07,3.75-.55,8,2.84,11.62,6,14c2.76,2.13,8.07,5.64,11.2,2.26A2.58,2.58,0,0,0,18,14.64c-.08-1-1.05-1.77-1.79-2.33-.58-.42-1.77-1.57-2.52-1.55s-1.09.72-1.52,1.13l-.74.74c-.13.12-1.72-.91-1.9-1a13.85,13.85,0,0,1-1.81-1.4A11.5,11.5,0,0,1,6.25,8.53a8.3,8.3,0,0,1-1-1.79s.87-.93,1.12-1.3c.53-.79.92-1.4.33-2.33a5.33,5.33,0,0,0-.8-.91A14.78,14.78,0,0,0,4.21.78,3.45,3.45,0,0,0,2.84,0Z"/></g></g></svg>