<svg xmlns="http://www.w3.org/2000/svg" viewBox="0 0 283.43 230.27"><defs><style>.cls-1{fill:#fff;}.cls-2{fill:#5bc3b8;}.cls-3{fill:#f79a8c;}.cls-4{fill:#f0907b;}</style></defs><title>icon_point-4</title><g id="Слой_2" data-name="Слой 2"><g id="Слой_1-2" data-name="Слой 1"><path class="cls-1" d="M168.89,207.55a92.27,92.27,0,1,0-92.21-92.27A92.25,92.25,0,0,0,168.89,207.55Z"/><path class="cls-2" d="M168.89,230.27h-.79a114.43,114.43,0,0,1-80.66-33.68c-1.4-1.4-2.79-2.79-4.19-4.39-.79-1-1.59-2-2.39-3.18l-1-1.6H59.15v-28.7H0V127.24l.2-.4L62.34,36h24.9a1.6,1.6,0,0,1,0,3.19H63.93L3,128.23v27.3H62.14v28.7H81.46l1.79,3.19a9.07,9.07,0,0,0,2,2.59c1.2,1.4,2.59,2.79,4,4.19a111.86,111.86,0,0,0,158.34-158C207.73-3.9,144.2-8.08,99.79,26.59a1.56,1.56,0,1,1-2-2.39A115,115,0,0,1,250,34a115,115,0,0,1-1.4,163.61A111.66,111.66,0,0,1,168.89,230.27ZM62.74,128.83H33.66l18.12-26.9a122,122,0,0,0,7.77-14.35l.4-1h4.78l-1,2.19c0,.4-.19,2.19-.39,8.17-.2,5.38-.4,9.77-.4,13.16v18.73Zm-22.91-3.19H59.75V109.9c0-3.19.2-7.78.4-13.16a14.12,14.12,0,0,1,.2-3c-1.79,3.39-3.59,6.78-5.58,9.77Z"/><path class="cls-2" d="M99.39,32.77a7.18,7.18,0,1,0-7.17-7.17A7.17,7.17,0,0,0,99.39,32.77Z"/><path class="cls-2" d="M174.67,115.28l-4.78-8.17a1.3,1.3,0,0,0-2.19,0l-4.78,8.17H76.68a92.22,92.22,0,1,0,184.43,0Z"/><path class="cls-3" d="M186,50h-7.63c0-.28,0-.56,0-.84V42.42a2.53,2.53,0,0,0-2.53-2.53H173.3V38.2h-2.53a2.53,2.53,0,0,0,0,5.06h2.53V41.57h2.53a.84.84,0,0,1,.84.85v6.74a5.92,5.92,0,0,1,0,.84H158.18a7.89,7.89,0,0,1-.05-.84V42.42a.85.85,0,0,1,.84-.85h2.53v1.69H164a2.53,2.53,0,1,0,0-5.06H161.5v1.69H159a2.53,2.53,0,0,0-2.53,2.53v6.74a7.89,7.89,0,0,0,.05.84h-7.63a4.22,4.22,0,0,0-4.22,4.21v27a4.22,4.22,0,0,0,4.22,4.21h6.74v3.37h-3.37v1.68h30.34V88.75H179.2V85.38H186a4.22,4.22,0,0,0,4.21-4.21v-27A4.22,4.22,0,0,0,186,50Zm-14.33-8.43h-.85a.84.84,0,0,1,0-1.68h.85Zm-8.43-1.68H164a.84.84,0,1,1,0,1.68h-.84Zm13,11.79a7.58,7.58,0,0,1-6.47,5,2.51,2.51,0,0,0-4.72,0,7.58,7.58,0,0,1-6.47-5Zm-8.83,6.74a.84.84,0,1,1,.84-.84A.85.85,0,0,1,167.4,58.42Zm-18.54-6.74h7.94A9.29,9.29,0,0,0,165,58.39,2.51,2.51,0,0,0,166.56,60v3.53a.85.85,0,0,1-.84.84H151.81a3.79,3.79,0,1,0,0,7.58h19.81v1.69h3.95a5.9,5.9,0,1,0,0-5.06h-3.95v1.69H151.81a2.11,2.11,0,0,1,0-4.22h13.91a2.52,2.52,0,0,0,2.52-2.52V60a2.53,2.53,0,0,0,1.55-1.56A9.29,9.29,0,0,0,178,51.68H186a2.54,2.54,0,0,1,2.53,2.53V78.64H146.33V54.21A2.53,2.53,0,0,1,148.86,51.68Zm26.2,20.22H173.3V70.22h1.76a5.08,5.08,0,0,0,0,1.68Zm1.61-.84a4.22,4.22,0,1,1,4.22,4.21A4.22,4.22,0,0,1,176.67,71.06Zm.85,17.69H157.29V85.38h20.23Zm8.43-5H148.86a2.53,2.53,0,0,1-2.53-2.53v-.84h42.15v.84A2.54,2.54,0,0,1,186,83.7Z"/><path class="cls-4" d="M180.89,73.59a2.53,2.53,0,1,0-2.53-2.53A2.54,2.54,0,0,0,180.89,73.59Zm0-3.37a.84.84,0,1,1-.84.84A.85.85,0,0,1,180.89,70.22Z"/><path class="cls-4" d="M153.07,46.63h1.69v1.68h-1.69Z"/><path class="cls-4" d="M149.7,46.63h1.69v1.68H149.7Z"/><path class="cls-4" d="M146.33,46.63H148v1.68h-1.68Z"/><path class="cls-4" d="M180.05,46.63h1.68v1.68h-1.68Z"/><path class="cls-4" d="M183.42,46.63h1.68v1.68h-1.68Z"/><path class="cls-4" d="M186.79,46.63h1.69v1.68h-1.69Z"/></g></g></svg>