<svg xmlns="http://www.w3.org/2000/svg" viewBox="0 0 285.16 230.21"><defs><style>.cls-1{fill:#fff;}.cls-2{fill:#5bc3b8;}.cls-3{fill:#f79a8c;}</style></defs><title>icon_input-1</title><g id="Слой_2" data-name="Слой 2"><g id="Слой_1-2" data-name="Слой 1"><path class="cls-1" d="M170.49,207.49a92.28,92.28,0,1,0-92.22-92.28A92.25,92.25,0,0,0,170.49,207.49Z"/><path class="cls-2" d="M170.49,230.21a113.91,113.91,0,0,1-81.26-33.68,57.29,57.29,0,0,1-4.78-5.19H42V111c0-7.77.2-15.15.4-21.72-2,2-4.18,4.18-6.57,6.37l-13,11L0,78.55,47.4,39.49H84.25a1.59,1.59,0,1,1,0,3.18H48.6l-44,36.27L23.3,102.06l10.36-9a79.56,79.56,0,0,0,9.16-9.36l3-3.79-.2,4.78c-.4,8-.6,16.74-.6,26.11V188H85.64l.4.59c1.59,1.8,3.39,3.79,5.18,5.58a111.85,111.85,0,1,0,10.56-167.6,1.56,1.56,0,0,1-2-2.39,114.91,114.91,0,0,1,151.77,9.57c44.82,44.84,44.82,117.78,0,162.82A113.12,113.12,0,0,1,170.49,230.21Z"/><path class="cls-2" d="M101,32.71a7.18,7.18,0,1,0-7.17-7.18A7.17,7.17,0,0,0,101,32.71Z"/><path class="cls-2" d="M176.46,115.21,171.68,107a1.31,1.31,0,0,0-2.19,0l-4.78,8.17H78.47a92.22,92.22,0,1,0,184.44,0Z"/><path class="cls-3" d="M195.73,62.63l-2.44-1.71a21.54,21.54,0,0,0-43.06,0l-2.43,1.7a.78.78,0,0,0-.22.26.62.62,0,0,0-.08.33v7.59a.62.62,0,0,0,.08.33.59.59,0,0,0,.22.25l2.73,2a.68.68,0,0,0,.41.14h2.72a.71.71,0,0,0,.5-.21.69.69,0,0,0,.21-.51V61.32a17.39,17.39,0,0,1,34.77,0V72.76a.72.72,0,0,0,.72.72h.64v.82a4.55,4.55,0,0,1-3.85,4.49A16,16,0,0,0,188,72.25V61.78a16.27,16.27,0,1,0-32.54,0V72.25a16.27,16.27,0,0,0,30.42,8H186a6,6,0,0,0,6-6v-.82h.65a.74.74,0,0,0,.41-.13l2.73-1.95a.68.68,0,0,0,.22-.26.62.62,0,0,0,.08-.33V63.22a.73.73,0,0,0-.08-.33A.78.78,0,0,0,195.73,62.63ZM171.76,47A14.85,14.85,0,0,1,186.6,61.78v3.85a14.73,14.73,0,0,1-14.22-7.26.65.65,0,0,0-.26-.26.75.75,0,0,0-.36-.1.78.78,0,0,0-.36.1.81.81,0,0,0-.26.26,14.64,14.64,0,0,1-14.22,7.26V61.78A14.85,14.85,0,0,1,171.76,47Zm0,40.13a14.85,14.85,0,0,1-14.84-14.83V67.06a14.72,14.72,0,0,0,1.49.08,16.17,16.17,0,0,0,13.35-7.07,16.17,16.17,0,0,0,13.36,7.07c.49,0,1,0,1.49-.08v5.19a14.69,14.69,0,0,1-1.56,6.6h-6.7a2.32,2.32,0,0,0-2.22-1.61H173.3a2.33,2.33,0,0,0-1.64,4,2.34,2.34,0,0,0,1.64.68h2.83a2.36,2.36,0,0,0,2.22-1.61h5.88a14.8,14.8,0,0,1-12.47,6.8ZM177,79.61a.87.87,0,0,1-.28.6.89.89,0,0,1-.62.25H173.3a.88.88,0,0,1-.63-.26.88.88,0,0,1,0-1.27.88.88,0,0,1,.63-.26h2.83a.9.9,0,0,1,.62.25.85.85,0,0,1,.28.6s0,0,0,0S177,79.59,177,79.61Zm-24.09-7.56h-1.77l-2.25-1.6V63.59L151.17,62h1.77Zm18.82-29.17A18.89,18.89,0,0,0,153,60.59h-1.31a20.11,20.11,0,0,1,40.18,0h-1.3a18.93,18.93,0,0,0-18.79-17.72ZM194.6,70.45l-2.24,1.6h-1.78V62h1.78l2.24,1.57Z"/></g></g></svg>