<svg xmlns="http://www.w3.org/2000/svg" viewBox="0 0 45.52 52.23"><defs><style>.cls-1{fill:#f79a8c;}</style></defs><title>icon_stethoscope-4</title><g id="Слой_2" data-name="Слой 2"><g id="Слой_1-2" data-name="Слой 1"><path class="cls-1" d="M41.3,11.79H33.68c0-.27,0-.55,0-.84V4.21a2.54,2.54,0,0,0-2.53-2.53H28.66V0H26.13a2.53,2.53,0,1,0,0,5.05h2.53V3.37h2.53a.85.85,0,0,1,.84.84V11a7.58,7.58,0,0,1-.05.84H13.54a7.58,7.58,0,0,1,0-.84V4.21a.85.85,0,0,1,.84-.84h2.53V5.05h2.53a2.53,2.53,0,1,0,0-5H16.86V1.68H14.33A2.54,2.54,0,0,0,11.8,4.21V11c0,.29,0,.57,0,.84H4.21A4.22,4.22,0,0,0,0,16V43a4.22,4.22,0,0,0,4.21,4.22H11v3.37H7.59v1.68H37.93V50.55H34.56V47.18H41.3A4.22,4.22,0,0,0,45.52,43V16A4.22,4.22,0,0,0,41.3,11.79ZM27,3.37h-.84a.85.85,0,0,1,0-1.69H27ZM18.54,1.68h.85a.85.85,0,0,1,0,1.69h-.85Zm13.05,11.8a7.59,7.59,0,0,1-6.47,5,2.51,2.51,0,0,0-4.72,0,7.59,7.59,0,0,1-6.47-5Zm-8.83,6.74a.85.85,0,0,1,0-1.69.85.85,0,0,1,0,1.69ZM4.21,13.48h8a9.26,9.26,0,0,0,8.21,6.7,2.54,2.54,0,0,0,1.55,1.57v3.52a.85.85,0,0,1-.85.85H7.17a3.79,3.79,0,1,0,0,7.58H27v1.68h4a5.9,5.9,0,1,0,0-5.05H27V32H7.17a2.11,2.11,0,1,1,0-4.21h13.9a2.53,2.53,0,0,0,2.53-2.53V21.75a2.5,2.5,0,0,0,1.54-1.57,9.26,9.26,0,0,0,8.22-6.7H41.3A2.53,2.53,0,0,1,43.83,16V40.44H1.69V16A2.52,2.52,0,0,1,4.21,13.48ZM30.41,33.7H28.66V32h1.75a6,6,0,0,0,0,1.69ZM32,32.85a4.22,4.22,0,1,1,4.22,4.22A4.22,4.22,0,0,1,32,32.85Zm.85,17.7H12.64V47.18H32.88Zm8.42-5.06H4.21A2.52,2.52,0,0,1,1.69,43v-.84H43.83V43A2.53,2.53,0,0,1,41.3,45.49Z"/></g></g></svg>