<svg xmlns="http://www.w3.org/2000/svg" viewBox="0 0 173.17 75.55"><defs><style>.cls-1{fill:#5bc3b8;}.cls-2{fill:#f0907b;}</style></defs><title>logo</title><g id="Слой_2" data-name="Слой 2"><g id="Слой_1-2" data-name="Слой 1"><path class="cls-1" d="M91.38,31.93c.14,0,.29,0,.36.08a.88.88,0,0,1,.29.22c.07.07.15.22.22.29a1,1,0,0,1,.07.44.94.94,0,0,1-.29.73,7.73,7.73,0,0,1-12.64-6.07,7.84,7.84,0,0,1,7.77-7.9,7.76,7.76,0,0,1,5,1.83.88.88,0,0,1,.29.73.86.86,0,0,1-.08.44.9.9,0,0,1-.21.29,1.39,1.39,0,0,1-.37.22.83.83,0,0,1-.43.08,1.05,1.05,0,0,1-.73-.3,6.72,6.72,0,0,0-1.6-.87,5.35,5.35,0,0,0-1.89-.3,5.72,5.72,0,0,0-5.74,5.78,5.8,5.8,0,0,0,1.67,4.09,5.72,5.72,0,0,0,7.63.44A1.24,1.24,0,0,1,91.38,31.93Z"/><path class="cls-1" d="M100.09,28.42l4.36-8.19a1,1,0,0,1,.87-.51.86.86,0,0,1,.44.08c.14.07.22.14.36.21a1.39,1.39,0,0,1,.22.37,1,1,0,0,1,.07.44,1.39,1.39,0,0,1-.14.51L99.66,33.76a4.29,4.29,0,0,1-1.24,1.32,3.18,3.18,0,0,1-1.67.44,2.72,2.72,0,0,1-.8-.08,3.22,3.22,0,0,1-.8-.29,4,4,0,0,1-.58-.44,1,1,0,0,1-.22-.58.86.86,0,0,1,.08-.44c.07-.15.14-.22.22-.37s.21-.14.29-.22a.93.93,0,0,1,.43-.07.65.65,0,0,1,.36.07,1.64,1.64,0,0,1,.3.15c.07.07.21.07.29.15a.65.65,0,0,0,.36.07,1.86,1.86,0,0,0,.65-.15,1.09,1.09,0,0,0,.51-.51l1.09-2.12-5-9.29a2,2,0,0,1-.15-.51.88.88,0,0,1,.08-.44c.07-.14.14-.22.21-.36s.22-.15.29-.22a1,1,0,0,1,.44-.07.94.94,0,0,1,.87.51Z"/><path class="cls-1" d="M118.84,34.42a.86.86,0,0,1-.08.44.78.78,0,0,1-.22.29,1.41,1.41,0,0,1-.36.22.93.93,0,0,1-.43.07,1,1,0,0,1-.44-.07.91.91,0,0,1-.29-.22c-.07-.07-.15-.22-.22-.29s-.07-.29-.07-.44V28.94a5.26,5.26,0,0,1-3.49,1.24,5.2,5.2,0,0,1-2.1-.44,5.6,5.6,0,0,1-1.75-1.17,5.68,5.68,0,0,1-1.16-1.75,5.31,5.31,0,0,1-.44-2.13v-3.8a.88.88,0,0,1,.08-.44c.07-.14.14-.22.21-.36s.22-.15.29-.22a.85.85,0,0,1,.44-.07,1,1,0,0,1,.44.07c.14.07.21.14.36.22a2.1,2.1,0,0,1,.22.36,1,1,0,0,1,.07.44v3.8a2.92,2.92,0,0,0,.29,1.39,4.13,4.13,0,0,0,.73,1.1,2.79,2.79,0,0,0,1.09.73,2.9,2.9,0,0,0,1.38.29,2.43,2.43,0,0,0,1.3-.29,4.07,4.07,0,0,0,1.09-.73,2.83,2.83,0,0,0,.73-1.1,4.1,4.1,0,0,0,.29-1.39v-3.8a1,1,0,0,1,.07-.44c.08-.14.15-.22.22-.36s.22-.15.29-.22a.83.83,0,0,1,.44-.07.93.93,0,0,1,.43.07c.15.07.22.14.37.22a2.1,2.1,0,0,1,.22.36,1,1,0,0,1,.07.44V34.42Z"/><path class="cls-1" d="M120.36,34l5.23-13.45a1.09,1.09,0,0,1,1-.73,1.06,1.06,0,0,1,1,.73l5.23,13.52a1,1,0,0,1,.07.44.91.91,0,0,1-.29.73,1,1,0,0,1-.73.3.91.91,0,0,1-.72-.3.56.56,0,0,1-.22-.36l-1.82-4.68h-5l-1.82,4.68c-.07.15-.14.22-.22.36a.91.91,0,0,1-.72.3,1,1,0,0,1-.73-.3.91.91,0,0,1-.29-.73A.64.64,0,0,1,120.36,34Zm7.92-5.85-1.67-4.39-1.67,4.39Z"/><path class="cls-1" d="M145.64,31.93c.15,0,.29,0,.36.08a.93.93,0,0,1,.3.22c.07.07.14.22.21.29a.86.86,0,0,1,.08.44,1,1,0,0,1-.29.73,7.55,7.55,0,0,1-4.87,1.75,7.43,7.43,0,0,1-5.52-2.26,7.53,7.53,0,0,1-2.25-5.56,7.84,7.84,0,0,1,7.77-7.9,7.75,7.75,0,0,1,5,1.83.85.85,0,0,1,.29.73,1,1,0,0,1-.07.44.91.91,0,0,1-.22.29,1.31,1.31,0,0,1-.36.22.86.86,0,0,1-.44.08,1.05,1.05,0,0,1-.73-.3,6.47,6.47,0,0,0-1.59-.87,5.39,5.39,0,0,0-1.89-.3,5.72,5.72,0,0,0-4.07,1.68,5.66,5.66,0,0,0-1.67,4.1,5.76,5.76,0,0,0,1.67,4.09,5.72,5.72,0,0,0,7.63.44A1,1,0,0,1,145.64,31.93Z"/><path class="cls-1" d="M159.08,34.42a1,1,0,0,1-1,1,.92.92,0,0,1-.72-.29.94.94,0,0,1-.29-.73V28.64h-7v5.78a.94.94,0,0,1-.29.73.92.92,0,0,1-.72.29,1,1,0,0,1-1-1V20.82a1,1,0,0,1,1-1,.92.92,0,0,1,.72.29.94.94,0,0,1,.29.73V26.6h7V20.82a.94.94,0,0,1,.29-.73.92.92,0,0,1,.72-.29,1,1,0,0,1,1,1Z"/><path class="cls-1" d="M160.61,34l5.23-13.45a1.07,1.07,0,0,1,1-.73,1.05,1.05,0,0,1,1,.73l5.23,13.52a1,1,0,0,1,.07.44,1,1,0,0,1-1,1,1,1,0,0,1-.73-.3c-.07-.07-.22-.21-.22-.36l-1.81-4.68h-5l-1.81,4.68c-.08.15-.15.22-.22.36a1,1,0,0,1-.73.3,1,1,0,0,1-1-1A.57.57,0,0,1,160.61,34Zm7.91-5.85-1.67-4.39-1.67,4.39Z"/><path class="cls-2" d="M90.21,42H86.36V54.53a.94.94,0,0,1-.29.73.9.9,0,0,1-.72.29,1,1,0,0,1-1-1V42H80.48a.94.94,0,0,1-.73-.29,1.06,1.06,0,0,1,0-1.46,1,1,0,0,1,.73-.3h9.73a1,1,0,0,1,.73,1.76A1.28,1.28,0,0,1,90.21,42Z"/><path class="cls-2" d="M98.93,48.53l4.36-8.19a1,1,0,0,1,.87-.51,1,1,0,0,1,.44.07c.14.08.21.15.36.22a1.71,1.71,0,0,1,.22.37,1,1,0,0,1,.07.44,1.45,1.45,0,0,1-.14.51L98.5,53.87a4.41,4.41,0,0,1-1.24,1.32,3.2,3.2,0,0,1-1.67.44,2.72,2.72,0,0,1-.8-.08,3.22,3.22,0,0,1-.8-.29,4.17,4.17,0,0,1-.58-.44.79.79,0,0,1-.22-.58,1,1,0,0,1,.07-.44c.08-.15.15-.22.22-.37a3.15,3.15,0,0,0,.29-.22,1,1,0,0,1,.44-.07.66.66,0,0,1,.36.07c.15.08.22.08.29.15s.22.07.29.15a.7.7,0,0,0,.37.07,2,2,0,0,0,.65-.15c.22-.07.36-.29.51-.51l1.09-2.12-5-9.29a1.64,1.64,0,0,1-.15-.51,1,1,0,0,1,.07-.44c.08-.14.15-.22.22-.36s.22-.15.29-.22a.86.86,0,0,1,.44-.08,1,1,0,0,1,.87.52Z"/><path class="cls-2" d="M106.63,54.53V40.86a1,1,0,0,1,.07-.44c.08-.15.15-.22.22-.37s.22-.15.29-.22a1,1,0,0,1,.44-.07h3A4.47,4.47,0,0,1,112,40a5.89,5.89,0,0,1,1.23.51,5.38,5.38,0,0,1,1,.8,5.79,5.79,0,0,1,.8,1,6.31,6.31,0,0,1,.51,1.24,4.45,4.45,0,0,1,.21,1.39,5,5,0,0,1-1.52,3.66,5,5,0,0,1-3.63,1.53h-2v4.24a.93.93,0,0,1-.3.73.91.91,0,0,1-.72.3,1,1,0,0,1-.73-.3C106.7,55,106.63,54.75,106.63,54.53Zm2-12.58v6.22h2a3.11,3.11,0,0,0,1.16-.22,3.19,3.19,0,0,0,1-.66,2.49,2.49,0,0,0,.65-1,3.39,3.39,0,0,0,.22-1.25,3.33,3.33,0,0,0-.22-1.24,3.06,3.06,0,0,0-.65-1,2.38,2.38,0,0,0-1-.66,3.18,3.18,0,0,0-1.16-.22h-2Z"/><path class="cls-2" d="M121.89,45.9a5.48,5.48,0,0,1,1.89.37,4.69,4.69,0,0,1,2.54,2.56,5,5,0,0,1,.36,1.82,5.44,5.44,0,0,1-.36,1.9,4.69,4.69,0,0,1-2.54,2.56,5.48,5.48,0,0,1-1.89.37h-3.78a.54.54,0,0,1-.36-.07,1.08,1.08,0,0,1-.29-.22c-.08-.08-.15-.22-.22-.3a.83.83,0,0,1-.08-.43V40.86a.84.84,0,0,1,.08-.44.93.93,0,0,1,.22-.3c.07-.07.21-.14.29-.22a.8.8,0,0,1,.36-.07h6a.93.93,0,0,1,.43.07c.15.08.22.15.37.22a2.25,2.25,0,0,1,.22.37,1,1,0,0,1,.07.44,1,1,0,0,1-.07.44,1.27,1.27,0,0,1-.22.29,1.71,1.71,0,0,1-.37.22.93.93,0,0,1-.43.07h-5V45.9Zm0,7.53a2.87,2.87,0,0,0,1.09-.22,2.55,2.55,0,0,0,.87-.58,2.64,2.64,0,0,0,.58-.88,2.8,2.8,0,0,0,.22-1.1,2.42,2.42,0,0,0-.22-1,2.64,2.64,0,0,0-.58-.88A2.8,2.8,0,0,0,122,48H119.2v5.48Z"/><path class="cls-2" d="M143.68,47.66a7.59,7.59,0,0,1-2.32,5.55,7.86,7.86,0,0,1-11.05,0,8,8,0,0,1,0-11.11,7.48,7.48,0,0,1,5.52-2.34,7.25,7.25,0,0,1,5.53,2.34,8.61,8.61,0,0,1,1.74,2.56A8.51,8.51,0,0,1,143.68,47.66ZM135.91,42a5.31,5.31,0,0,0-2.18.44,6.12,6.12,0,0,0-1.82,1.24,4.74,4.74,0,0,0-1.23,1.83,5.4,5.4,0,0,0-.44,2.2,5.77,5.77,0,0,0,1.67,4.09A5.56,5.56,0,0,0,136,53.43a5.68,5.68,0,0,0,4.07-1.68,5.39,5.39,0,0,0,1.67-4.09,5.78,5.78,0,0,0-1.67-4.1A6,6,0,0,0,135.91,42Z"/><path class="cls-2" d="M154.07,42h-3.85V54.53a1,1,0,0,1-1.75.73,1,1,0,0,1-.29-.73V42h-3.92a.94.94,0,0,1-.73-.29,1.06,1.06,0,0,1,0-1.46,1,1,0,0,1,.73-.3H154a.92.92,0,0,1,.72.3,1.06,1.06,0,0,1,0,1.46A.88.88,0,0,1,154.07,42Z"/><path class="cls-2" d="M152.76,54,158,40.56a1.09,1.09,0,0,1,1-.73,1.05,1.05,0,0,1,1,.73l5.24,13.53a1,1,0,0,1,.07.44,1,1,0,0,1-1.75.73.62.62,0,0,1-.21-.37l-1.82-4.68h-5l-1.82,4.68c-.07.15-.14.22-.22.37a.9.9,0,0,1-.72.29,1,1,0,0,1-1-1A.45.45,0,0,1,152.76,54Zm7.85-5.85-1.67-4.39-1.68,4.39Z"/><path class="cls-2" d="M54.4,31.71a4,4,0,0,0,3.85,3,5.76,5.76,0,0,0,1.16-.14h.08a4.08,4.08,0,0,0-.08-7.83h-.22a3,3,0,0,0-.79-.07,4,4,0,0,0-3.85,2.92c-.08.37-.08.59-.15.88A2.37,2.37,0,0,0,54.4,31.71Zm3.92-3.14h.29a1.44,1.44,0,0,1,1,.44,2.07,2.07,0,0,1,.8,1.68,2,2,0,0,1-.8,1.61,3.09,3.09,0,0,1-.87.44h-.44a2.71,2.71,0,0,1-1.45-.59,2.14,2.14,0,0,1-.58-1.46A2.11,2.11,0,0,1,58.32,28.57Z"/><path class="cls-1" d="M64.13,37.2c0-.29.08-.51.08-.81l-16.42-.14L45,33.32,43.21,31.5l10.9.07A4,4,0,0,1,54,30.18a3.84,3.84,0,0,1,.14-.88L42,29.23H41L39.29,27.4l-1.38-1.32H48.73V13.29a2.92,2.92,0,0,0-2.9-2.93H29.41a2.93,2.93,0,0,0-2.91,2.93V26.45h-13a2.92,2.92,0,0,0-2.9,2.92V45.83a2.91,2.91,0,0,0,2.9,2.92H26.58V61.91a2.93,2.93,0,0,0,2.9,2.93H45.76A2.69,2.69,0,0,0,48,63.67a3.19,3.19,0,0,0,.58-1.76V48.75c-.07,0-.07-.07-.07-.14H37.76l3.06-3H54.18a5.12,5.12,0,0,1-.07-1.46c0-.3.07-.52.07-.88l-11-.07,2.11-2.13,2.54-2.55,16.42.29A3.9,3.9,0,0,1,64.13,37.2ZM42,41.15l-4.22,4.24-7.91-7.9,7.91-8.12.37.37,3.78,3.8,3.92,4Z"/><path class="cls-2" d="M72.49,37.64a4,4,0,0,0-4-4.1,4.07,4.07,0,0,0-3.85,2.93v.07a3.13,3.13,0,0,0-.07.81,9.12,9.12,0,0,0,.07,1.38v.08a3.41,3.41,0,0,0,.73,1.31l.07.08a2.26,2.26,0,0,0,.58.58,4.44,4.44,0,0,0,2.47.88,4,4,0,0,0,4-3.8Zm-2.4,1.17a2,2,0,0,1-1.67.8,1.65,1.65,0,0,1-.58-.07,2.1,2.1,0,0,1,.65-4.1A2.86,2.86,0,0,1,70,36a2.2,2.2,0,0,1,.58,1.46A2.6,2.6,0,0,1,70.09,38.81Z"/><path class="cls-2" d="M58.32,40.49a4.15,4.15,0,0,0-3.92,2.92v.08a3.1,3.1,0,0,0-.07.8,9.25,9.25,0,0,0,.07,1.39A3.41,3.41,0,0,0,55.13,47c.07.07.07.14.14.29s.07.07.15.15l.29.29c.07,0,.07.07.14.07a4.44,4.44,0,0,0,2.47.88v0a4.16,4.16,0,0,0,3.13-1.39l.07-.07c0-.08.07-.08.07-.15a1.59,1.59,0,0,1,.29-.44.07.07,0,0,1,.08-.07c0-.07.07-.07.07-.15v-.07c0-.07,0-.07.07-.15a4.15,4.15,0,0,0,.29-1.39,4.47,4.47,0,0,0-1.16-2.92A3.81,3.81,0,0,0,58.32,40.49Zm0,6.14a2.81,2.81,0,0,1-1.45-.58,2.08,2.08,0,0,1-.58-1.47,2,2,0,0,1,2.11-2,2.84,2.84,0,0,1,1.45.58,2.2,2.2,0,0,1,.58,1.46A2.32,2.32,0,0,1,58.32,46.63Z"/><path class="cls-1" d="M70.53,55.48l-.29.51a2,2,0,0,1-.37.59c-.14.29-.29.51-.43.8a30.88,30.88,0,0,1-3.56,5,39.28,39.28,0,0,1-7,6.51A37.39,37.39,0,0,1,47.72,74.2c-1.17.37-2.26.51-3.42.8s-2.32.37-3.56.44a31.63,31.63,0,0,1-3.77.08,23.65,23.65,0,0,1-3.93-.3,35.9,35.9,0,0,1-15.47-5.48A38.52,38.52,0,0,1,5.29,57.09,38,38,0,0,1,.06,39.69,36.53,36.53,0,0,1,3.55,21.84,38.69,38.69,0,0,1,14.52,8a44.22,44.22,0,0,1,7.19-4.46A37.26,37.26,0,0,1,44,.56a39.16,39.16,0,0,1,6.32,1.69,39.73,39.73,0,0,1,5.31,2.48,38.66,38.66,0,0,1,7.62,5.71c.95,1,1.75,1.75,2.47,2.63a10.11,10.11,0,0,1,.87,1.17c.29.36.51.73.73.95.44.58.73,1,1,1.31a1.11,1.11,0,0,0,.36.44l-.44.37a1.89,1.89,0,0,0-.36-.44,14.14,14.14,0,0,0-1-1.32,38.34,38.34,0,0,0-4.06-4.46A38.76,38.76,0,0,0,55.2,5.68a40.25,40.25,0,0,0-11.41-3.8,37.52,37.52,0,0,0-14.16.51,37.7,37.7,0,0,0-14.09,7A37,37,0,0,0,5.22,22.57a36.46,36.46,0,0,0-2.69,8.34A35.57,35.57,0,0,0,2,39.69,37.43,37.43,0,0,0,6.89,56.36a36.23,36.23,0,0,0,11.7,12.21,35.34,35.34,0,0,0,14.82,5.48c1.23.15,2.54.3,3.77.37s2.47,0,3.64-.07,2.32-.3,3.48-.44a25.71,25.71,0,0,0,3.34-.73,37.84,37.84,0,0,0,11-5,38.45,38.45,0,0,0,7-6.14,31.66,31.66,0,0,0,3.63-4.83c.15-.29.37-.51.51-.8s.29-.44.36-.58c.15-.37.29-.44.29-.44Z"/></g></g></svg>