<svg fill="#5BC3B8" id="Capa_1" enable-background="new 0 0 512 512" height="512" viewBox="0 0 512 512" width="512" xmlns="http://www.w3.org/2000/svg"><g><circle cx="387.93" cy="502" r="10"/><path d="m506.85 40c-3.3-7.8-8.02-14.8-14.04-20.81-6.01-6.02-13.01-10.74-20.81-14.04-8.08-3.42-16.66-5.15-25.5-5.15h-381c-8.84 0-17.42 1.73-25.5 5.15-7.8 3.3-14.8 8.02-20.81 14.04-6.02 6.01-10.74 13.01-14.04 20.81-3.42 8.08-5.15 16.66-5.15 25.5v381c0 8.84 1.73 17.42 5.15 25.5 3.3 7.8 8.02 14.8 14.04 20.81 6.01 6.02 13.01 10.74 20.81 14.04 8.08 3.42 16.66 5.15 25.5 5.15h277.43c5.51 0 10-4.49 10-10s-4.49-10-10-10h-277.43c-12.14 0-23.57-4.74-32.17-13.33-8.59-8.6-13.33-20.03-13.33-32.17v-381c0-12.14 4.74-23.57 13.33-32.17 8.6-8.59 20.03-13.33 32.17-13.33h381c12.14 0 23.57 4.74 32.17 13.33 8.59 8.6 13.33 20.03 13.33 32.17v381c0 12.14-4.74 23.57-13.33 32.17-8.6 8.59-20.03 13.33-32.17 13.33h-13.57c-5.52 0-10 4.49-10 10s4.48 10 10 10h13.57c8.84 0 17.42-1.73 25.5-5.15 7.8-3.3 14.8-8.02 20.81-14.04 6.02-6.01 10.74-13.01 14.04-20.81 3.42-8.08 5.15-16.66 5.15-25.5v-381c0-8.84-1.73-17.42-5.15-25.5z"/><path d="m256 46c-115.794 0-210 94.206-210 210s94.206 210 210 210 210-94.206 210-210-94.206-210-210-210zm0 400c-104.767 0-190-85.233-190-190s85.233-190 190-190 190 85.233 190 190-85.233 190-190 190z"/><path d="m146.675 247.31c-10.945-4.037-21.124-8.438-24.073-9.73-2.884-2.23-2.792-5.386-2.605-6.691.249-1.734 1.494-5.968 7.665-7.827 12.889-3.885 24.735 5.505 25.056 5.764 4.228 3.511 10.502 2.953 14.043-1.259 3.554-4.228 3.007-10.536-1.22-14.089-.812-.683-20.164-16.638-43.647-9.566-11.752 3.541-20.065 12.789-21.693 24.136-1.525 10.623 3.079 20.841 12.014 26.667.442.288.905.541 1.387.755.507.226 12.568 5.595 26.153 10.606 4.079 1.504 13.426 5.786 12.131 13.036-.947 5.301-7.3 10.784-16.293 10.784-8.996 0-17.662-3.637-23.182-9.729-3.709-4.092-10.033-4.402-14.125-.695-4.092 3.709-4.403 10.033-.695 14.125 9.249 10.205 23.455 16.298 38.002 16.298 18.028 0 33.161-11.468 35.982-27.268 2.115-11.854-3.315-27.356-24.9-35.317z"/><path d="m391.667 247.31c-10.945-4.037-21.124-8.438-24.073-9.73-2.884-2.23-2.792-5.386-2.605-6.691.249-1.734 1.494-5.968 7.665-7.827 12.886-3.884 24.734 5.504 25.056 5.764 4.228 3.511 10.502 2.953 14.043-1.259 3.554-4.228 3.007-10.536-1.22-14.089-.812-.683-20.163-16.638-43.647-9.566-11.752 3.541-20.065 12.789-21.693 24.136-1.525 10.623 3.079 20.841 12.014 26.667.442.288.905.541 1.387.755.507.226 12.568 5.595 26.153 10.606 4.079 1.504 13.426 5.786 12.131 13.036-.947 5.301-7.3 10.784-16.293 10.784-8.996 0-17.662-3.637-23.182-9.729-3.709-4.092-10.033-4.402-14.125-.695-4.092 3.709-4.403 10.033-.695 14.125 9.249 10.205 23.455 16.298 38.002 16.298 18.028 0 33.161-11.468 35.982-27.268 2.116-11.854-3.314-27.356-24.9-35.317z"/><path d="m256.11 201.786c-29.894 0-54.214 24.32-54.214 54.214s24.32 54.214 54.214 54.214 54.214-24.32 54.214-54.214-24.32-54.214-54.214-54.214zm0 88.428c-18.866 0-34.214-15.349-34.214-34.214s15.349-34.214 34.214-34.214 34.214 15.349 34.214 34.214-15.348 34.214-34.214 34.214z"/></g></svg>